<svg width="28" height="28" viewBox="0 0 28 28" fill="none" xmlns="http://www.w3.org/2000/svg">
<g clip-path="url(#clip0_65_74)">
<path fill-rule="evenodd" clip-rule="evenodd" d="M14 28C21.732 28 28 21.732 28 14C28 6.26801 21.732 0 14 0C6.26801 0 0 6.26801 0 14C0 21.732 6.26801 28 14 28Z" fill="white"/>
<path fill-rule="evenodd" clip-rule="evenodd" d="M15.2879 18.2394C18.3705 18.2394 20.4616 15.3706 20.4616 11.5306C20.4616 8.62771 18.0523 5.9231 14.3915 5.9231C9.83576 5.9231 7.53857 9.25752 7.53857 12.038C7.53857 13.7217 8.16252 15.2195 9.50221 15.7778C9.72169 15.8693 9.91836 15.7807 9.98227 15.5328C10.026 15.361 10.1317 14.9274 10.1776 14.7471C10.2419 14.5016 10.2171 14.4156 10.0398 14.2015C9.65394 13.736 9.40766 13.1345 9.40766 12.2816C9.40766 9.80807 11.2197 7.59368 14.1283 7.59368C16.7026 7.59368 18.118 9.19944 18.118 11.3449C18.118 14.1673 16.8946 16.5493 15.0779 16.5493C14.0743 16.5493 13.3241 15.7025 13.5643 14.6639C13.852 13.4239 14.411 12.0852 14.411 11.19C14.411 10.3892 13.9898 9.72038 13.1177 9.72038C12.092 9.72038 11.2684 10.8038 11.2684 12.2544C11.2684 13.1783 11.5747 13.8033 11.5747 13.8033C11.5747 13.8033 10.5251 18.3425 10.3408 19.1372C10.1737 19.8609 10.1487 20.6563 10.1722 21.3284C10.2424 21.9315 10.8265 22.4225 11.3332 21.761C11.6895 21.1797 12.0725 20.4457 12.2707 19.7099C12.3889 19.2746 12.9455 17.0193 12.9455 17.0193C13.279 17.6681 14.2527 18.2394 15.2879 18.2394Z" fill="#055641"/>
<circle cx="13.5" cy="14.5" r="9.5" fill="white"/>
<path d="M13.9999 16.5601C15.4138 16.5601 16.5599 15.4139 16.5599 14.0001C16.5599 12.5862 15.4138 11.4401 13.9999 11.4401C12.5861 11.4401 11.4399 12.5862 11.4399 14.0001C11.4399 15.4139 12.5861 16.5601 13.9999 16.5601Z" fill="#055641"/>
<path d="M17.52 6H10.48C9.29183 6 8.15232 6.472 7.31216 7.31216C6.472 8.15232 6 9.29183 6 10.48V17.52C6 18.7082 6.472 19.8477 7.31216 20.6878C8.15232 21.528 9.29183 22 10.48 22H17.52C18.7082 22 19.8477 21.528 20.6878 20.6878C21.528 19.8477 22 18.7082 22 17.52V10.48C22 9.29183 21.528 8.15232 20.6878 7.31216C19.8477 6.472 18.7082 6 17.52 6ZM14 17.84C13.2405 17.84 12.4981 17.6148 11.8666 17.1928C11.2351 16.7709 10.7429 16.1712 10.4523 15.4695C10.1617 14.7678 10.0856 13.9957 10.2338 13.2509C10.382 12.506 10.7477 11.8217 11.2847 11.2847C11.8217 10.7477 12.506 10.382 13.2509 10.2338C13.9957 10.0856 14.7678 10.1617 15.4695 10.4523C16.1712 10.7429 16.7709 11.2351 17.1928 11.8666C17.6148 12.4981 17.84 13.2405 17.84 14C17.84 15.0184 17.4354 15.9952 16.7153 16.7153C15.9952 17.4354 15.0184 17.84 14 17.84ZM18.16 10.8C17.9701 10.8 17.7845 10.7437 17.6267 10.6382C17.4688 10.5327 17.3457 10.3828 17.2731 10.2074C17.2004 10.032 17.1814 9.83893 17.2184 9.65271C17.2555 9.46649 17.3469 9.29544 17.4812 9.16118C17.6154 9.02692 17.7865 8.93549 17.9727 8.89845C18.1589 8.8614 18.352 8.88042 18.5274 8.95308C18.7028 9.02574 18.8527 9.14878 18.9582 9.30665C19.0637 9.46452 19.12 9.65013 19.12 9.84C19.12 10.0946 19.0189 10.3388 18.8388 10.5188C18.6588 10.6989 18.4146 10.8 18.16 10.8Z" fill="#055641"/>
</g>
<defs>
<clipPath id="clip0_65_74">
<rect width="28" height="28" fill="white"/>
</clipPath>
</defs>
</svg>
