<svg width="28" height="28" viewBox="0 0 28 28" fill="none" xmlns="http://www.w3.org/2000/svg">
<path d="M16.5441 12.0155C15.3494 12.0155 14.8145 12.6725 14.5158 13.1338V12.1753H12.2646C12.2939 12.8098 12.2646 18.9483 12.2646 18.9483H14.5158V15.1649C14.5158 14.9624 14.5298 14.7599 14.5895 14.6159C14.7526 14.2109 15.1227 13.7919 15.7448 13.7919C16.5593 13.7919 16.885 14.4134 16.885 15.3236V18.9478H19.1361L19.1367 15.0631C19.1367 12.9836 18.0258 12.0155 16.5441 12.0155ZM14.5152 13.1574H14.5006C14.5056 13.1495 14.5113 13.1422 14.5152 13.1343V13.1574Z" fill="white"/>
<path d="M11.0182 12.1753H8.76709V18.9484H11.0182V12.1753Z" fill="white"/>
<path d="M14 0.0354004C6.29996 0.0354004 0.0354004 6.29996 0.0354004 14C0.0354004 21.7001 6.29996 27.9647 14 27.9647C21.7001 27.9647 27.9647 21.7001 27.9647 14C27.9647 6.29996 21.7001 0.0354004 14 0.0354004ZM21.4053 20.3163C21.4053 20.9092 20.9126 21.3907 20.3034 21.3907H7.60159C6.99409 21.3907 6.50078 20.9098 6.50078 20.3163V7.46659C6.50078 6.87315 6.99409 6.39221 7.60159 6.39221H20.3034C20.912 6.39221 21.4053 6.87371 21.4053 7.46659V20.3163Z" fill="white"/>
<path d="M9.90778 8.90991C9.13828 8.90991 8.63428 9.41504 8.63428 10.0799C8.63428 10.7296 9.12309 11.2499 9.87797 11.2499H9.89259C10.6778 11.2499 11.1667 10.7296 11.1667 10.0799C11.1515 9.4156 10.6784 8.90991 9.90778 8.90991Z" fill="white"/>
</svg>
