<svg width="29" height="28" viewBox="0 0 29 28" fill="none" xmlns="http://www.w3.org/2000/svg">
<path d="M14.5 0.0354004C6.58604 0.0354004 0.147461 6.29996 0.147461 14C0.147461 21.7001 6.58604 27.9647 14.5 27.9647C22.4139 27.9647 28.8525 21.7001 28.8525 14C28.8525 6.29996 22.4139 0.0354004 14.5 0.0354004ZM18.0693 14.4917H15.7343C15.7343 18.1215 15.7343 22.5905 15.7343 22.5905H12.2742C12.2742 22.5905 12.2742 18.1648 12.2742 14.4917H10.6294V11.6297H12.2742V9.77846C12.2742 8.45265 12.9217 6.38096 15.7661 6.38096L18.3289 6.39053V9.16871C18.3289 9.16871 16.7709 9.16871 16.4679 9.16871C16.165 9.16871 15.7349 9.31609 15.7349 9.94834V11.6302H18.3711L18.0693 14.4917Z" fill="white"/>
</svg>
